<?xml version="1.0" encoding="UTF-8" standalone="no"?>
<svg width="80px" height="11px" viewBox="0 0 80 11" version="1.1" xmlns="http://www.w3.org/2000/svg" xmlns:xlink="http://www.w3.org/1999/xlink">
    <!-- Generator: Sketch 44.1 (41455) - http://www.bohemiancoding.com/sketch -->
    <title>TechForGood Copy</title>
    <desc>Created with Sketch.</desc>
    <defs></defs>
    <g id="Page-1" stroke="none" stroke-width="1" fill="none" fill-rule="evenodd">
        <path d="M1.30999996,1.192 L7.98199996,1.192 C8.23800124,1.192 8.42599936,1.2219997 8.54599996,1.282 C8.66600056,1.3420003 8.74599976,1.43599936 8.78599996,1.564 C8.82600016,1.69200064 8.84599996,1.85999896 8.84599996,2.068 C8.84599996,2.27600104 8.82600016,2.44199938 8.78599996,2.566 C8.74599976,2.69000062 8.67800044,2.77599976 8.58199996,2.824 C8.43799924,2.89600036 8.23400128,2.932 7.96999996,2.932 L5.67799996,2.932 L5.67799996,8.968 C5.67799996,9.15200092 5.67200002,9.28799956 5.65999996,9.376 C5.6479999,9.46400044 5.61200026,9.56599942 5.55199996,9.682 C5.49199966,9.79800058 5.38600072,9.87999976 5.23399996,9.928 C5.0819992,9.97600024 4.8820012,10 4.63399996,10 C4.38599872,10 4.1880007,9.97600024 4.03999996,9.928 C3.89199922,9.87999976 3.78800026,9.79800058 3.72799996,9.682 C3.66799966,9.56599942 3.63200002,9.46200046 3.61999996,9.37 C3.6079999,9.27799954 3.60199996,9.14000092 3.60199996,8.956 L3.60199996,2.932 L1.29799996,2.932 C1.04199868,2.932 0.854000558,2.9020003 0.733999958,2.842 C0.613999358,2.7819997 0.534000158,2.68800064 0.493999958,2.56 C0.453999758,2.43199936 0.433999958,2.26400104 0.433999958,2.056 C0.433999958,1.84799896 0.453999758,1.68200062 0.493999958,1.558 C0.534000158,1.43399938 0.601999478,1.34800024 0.697999958,1.3 C0.842000678,1.22799964 1.04599864,1.192 1.30999996,1.192 Z M14.096,7.174 C13.8519988,7.41000118 13.5820015,7.528 13.286,7.528 L10.442,7.528 C10.442,7.75200112 10.5739987,7.93999924 10.838,8.092 C11.1020013,8.24400076 11.3659987,8.32 11.63,8.32 C12.0940023,8.32 12.4579987,8.27200048 12.722,8.176 L12.854,8.128 C13.0460009,8.03999956 13.2059993,7.996 13.334,7.996 C13.5900013,7.996 13.8099991,8.1759982 13.994,8.536 C14.0980005,8.75200108 14.15,8.93599924 14.15,9.088 C14.15,9.80000356 13.2980085,10.156 11.594,10.156 C11.001997,10.156 10.4760023,10.054001 10.016,9.85 C9.55599767,9.64599898 9.19800125,9.37600168 8.94199997,9.04 C8.43799745,8.39199676 8.18599997,7.668004 8.18599997,6.868 C8.18599997,5.85999496 8.51199671,5.05400302 9.16399997,4.45 C9.81600323,3.84599698 10.6299951,3.544 11.606,3.544 C12.7180055,3.544 13.5339974,3.93599608 14.054,4.72 C14.3260013,5.13600208 14.462,5.58999754 14.462,6.082 C14.462,6.57400246 14.3400012,6.93799882 14.096,7.174 Z M11.93,6.436 C12.2340015,6.436 12.386,6.30800128 12.386,6.052 C12.386,5.86799908 12.3160007,5.72000056 12.176,5.608 C12.0359993,5.49599944 11.8360013,5.44 11.576,5.44 C11.3159987,5.44 11.0580013,5.54599894 10.802,5.758 C10.5459987,5.97000106 10.418,6.1959988 10.418,6.436 L11.93,6.436 Z M17.858,7.63 C18.0820011,7.81800094 18.3199987,7.912 18.572,7.912 C18.8240012,7.912 19.0599989,7.83800074 19.28,7.69 C19.5000011,7.54199926 19.6779993,7.468 19.814,7.468 C20.0540012,7.468 20.3459983,7.67999788 20.69,8.104 C20.8740009,8.33600116 20.966,8.54399908 20.966,8.728 C20.966,9.03200152 20.7460022,9.31599868 20.306,9.58 C19.8499977,9.9000016 19.2900033,10.06 18.626,10.06 C17.8819963,10.06 17.1660034,9.79200268 16.478,9.256 C16.1499983,8.99999872 15.882001,8.65800214 15.674,8.23 C15.4659989,7.80199786 15.362,7.33000258 15.362,6.814 C15.362,6.29799742 15.4659989,5.8300021 15.674,5.41 C15.882001,4.9899979 16.1499983,4.65200128 16.478,4.396 C17.1420033,3.86799736 17.8499962,3.604 18.602,3.604 C18.9060015,3.604 19.2019985,3.64599958 19.49,3.73 C19.7780014,3.81400042 19.9899993,3.8959996 20.126,3.976 L20.318,4.096 C20.4620007,4.19200048 20.5739996,4.26799972 20.654,4.324 C20.862001,4.4840008 20.966,4.66599898 20.966,4.87 C20.966,5.07400102 20.8820008,5.30399872 20.714,5.56 C20.4259985,6.0000022 20.1500013,6.22 19.886,6.22 C19.7339992,6.22 19.5180014,6.13200088 19.238,5.956 C19.0939993,5.81999932 18.8880013,5.752 18.62,5.752 C18.3519986,5.752 18.1020011,5.84799904 17.87,6.04 C17.6379988,6.23200096 17.522,6.4979983 17.522,6.838 C17.522,7.1780017 17.6339989,7.44199906 17.858,7.63 Z M25.478,3.7 C26.278004,3.7 26.9439973,4.00399696 27.476,4.612 C28.0080027,5.22000304 28.274,5.9639956 28.274,6.844 L28.274,8.956 C28.274,9.14000092 28.2680001,9.27799954 28.256,9.37 C28.2439999,9.46200046 28.2060003,9.5679994 28.142,9.688 C28.0379995,9.89600104 27.7300026,10 27.218,10 C26.7299976,10 26.4260006,9.89600104 26.306,9.688 C26.2419997,9.5679994 26.2040001,9.46000048 26.192,9.364 C26.1799999,9.26799952 26.174,9.12400096 26.174,8.932 L26.174,6.832 C26.174,6.50399836 26.0820009,6.24800092 25.898,6.064 C25.7139991,5.87999908 25.4800014,5.788 25.196,5.788 C24.9119986,5.788 24.6620011,5.87399914 24.446,6.046 C24.2299989,6.21800086 24.1060002,6.41199892 24.074,6.628 L24.074,8.956 C24.074,9.14000092 24.0680001,9.27799954 24.056,9.37 C24.0439999,9.46200046 24.0060003,9.5679994 23.942,9.688 C23.8379995,9.89600104 23.5300026,10 23.018,10 C22.5139975,10 22.2060006,9.89200108 22.094,9.676 C22.0379997,9.5559994 22.0040001,9.45200044 21.992,9.364 C21.9799999,9.27599956 21.974,9.13600096 21.974,8.944 L21.974,1.768 C21.974,1.58399908 21.9799999,1.44600046 21.992,1.354 C22.0040001,1.26199954 22.0379997,1.16000056 22.094,1.048 C22.2060006,0.83199892 22.5179974,0.724 23.03,0.724 C23.5340025,0.724 23.8379995,0.83199892 23.942,1.048 C24.0060003,1.1680006 24.0439999,1.27399954 24.056,1.366 C24.0680001,1.45800046 24.074,1.59599908 24.074,1.78 L24.074,4.432 C24.474002,3.94399756 24.9419973,3.7 25.478,3.7 Z M35.454,1.204 C35.6380009,1.204 35.7759995,1.20999994 35.868,1.222 C35.9600005,1.23400006 36.0639994,1.27199968 36.18,1.336 C36.2960006,1.40000032 36.3779998,1.50799924 36.426,1.66 C36.4740002,1.81200076 36.498,2.01599872 36.498,2.272 C36.498,2.52800128 36.4740002,2.73199924 36.426,2.884 C36.3779998,3.03600076 36.2940006,3.1419997 36.174,3.202 C36.0539994,3.2620003 35.9480005,3.29799994 35.856,3.31 C35.7639995,3.32200006 35.622001,3.328 35.43,3.328 L31.758,3.328 L31.758,4.54 L34.122,4.54 C34.314001,4.54 34.4559995,4.54599994 34.548,4.558 C34.6400005,4.57000006 34.7459994,4.60799968 34.866,4.672 C35.074001,4.7920006 35.178,5.10799744 35.178,5.62 C35.178,6.1800028 35.0260015,6.51199948 34.722,6.616 C34.5939994,6.6560002 34.3900014,6.676 34.11,6.676 L31.758,6.676 L31.758,8.944 C31.758,9.13600096 31.7520001,9.27599956 31.74,9.364 C31.7279999,9.45200044 31.6900003,9.5559994 31.626,9.676 C31.5139994,9.89200108 31.2020026,10 30.69,10 C30.1299972,10 29.8020005,9.84800152 29.706,9.544 C29.6579998,9.41599936 29.634,9.2120014 29.634,8.932 L29.634,2.26 C29.634,1.85199796 29.7099992,1.57400074 29.862,1.426 C30.0140008,1.27799926 30.3019979,1.204 30.726,1.204 L35.454,1.204 Z M37.326,4.468 C37.9980034,3.84399688 38.7659957,3.532 39.63,3.532 C40.4940043,3.532 41.2579967,3.8419969 41.922,4.462 C42.5860033,5.0820031 42.918,5.8719952 42.918,6.832 C42.918,7.49600332 42.7460017,8.08599742 42.402,8.602 C42.0579983,9.11800258 41.6400025,9.49799878 41.148,9.742 C40.6559975,9.98600122 40.1460026,10.108 39.618,10.108 C39.0899974,10.108 38.5780025,9.9780013 38.082,9.718 C37.5859975,9.4579987 37.1680017,9.07400254 36.828,8.566 C36.4879983,8.05799746 36.318,7.4840032 36.318,6.844 C36.318,5.8839952 36.6539966,5.09200312 37.326,4.468 Z M39.606,7.996 C39.8700013,7.996 40.1339987,7.896001 40.398,7.696 C40.6620013,7.495999 40.794,7.20000196 40.794,6.808 C40.794,6.41599804 40.6700012,6.12400096 40.422,5.932 C40.1739988,5.73999904 39.9060014,5.644 39.618,5.644 C39.3299986,5.644 39.0620012,5.743999 38.814,5.944 C38.5659988,6.144001 38.442,6.43799806 38.442,6.826 C38.442,7.21400194 38.5699987,7.50599902 38.826,7.702 C39.0820013,7.89800098 39.3419987,7.996 39.606,7.996 Z M48.672,3.994 C48.7720005,4.11000058 48.822,4.29599872 48.822,4.552 C48.822,4.80800128 48.7460008,5.08799848 48.594,5.392 C48.4419993,5.69600152 48.2220015,5.848 47.934,5.848 C47.7899993,5.848 47.6520007,5.81600032 47.52,5.752 C47.3879994,5.68799968 47.2140011,5.656 46.998,5.656 C46.7819989,5.656 46.580001,5.73199924 46.392,5.884 C46.2039991,6.03600076 46.11,6.21999892 46.11,6.436 L46.11,8.956 C46.11,9.14000092 46.1040001,9.27799954 46.092,9.37 C46.08,9.46200046 46.0420003,9.5679994 45.978,9.688 C45.8579994,9.89600104 45.5460025,10 45.042,10 C44.6579981,10 44.3820009,9.93200068 44.214,9.796 C44.0859994,9.68399944 44.0140001,9.51200116 43.998,9.28 L43.998,4.72 C43.998,4.53599908 44.004,4.39800046 44.016,4.306 C44.0280001,4.21399954 44.0619997,4.11200056 44.118,4 C44.2300006,3.78399892 44.5419975,3.676 45.054,3.676 C45.5340024,3.676 45.8339994,3.76799908 45.954,3.952 C46.0420005,4.08000064 46.086,4.21199932 46.086,4.348 C46.1260002,4.29199972 46.1839996,4.2240004 46.26,4.144 C46.3360004,4.0639996 46.4979988,3.95600068 46.746,3.82 C46.9940013,3.68399932 47.2119991,3.616 47.4,3.616 C47.588001,3.616 47.7459994,3.6259999 47.874,3.646 C48.0020007,3.6660001 48.1419993,3.69999976 48.294,3.748 C48.4460008,3.79600024 48.5719995,3.87799942 48.672,3.994 Z M54.366,4.696 L56.478,4.696 C56.9100022,4.71200008 57.1739995,4.82399896 57.27,5.032 C57.3500004,5.18400076 57.39,5.40799852 57.39,5.704 L57.39,8.344 C57.39,8.60000128 57.2780011,8.84399884 57.054,9.076 C56.3819967,9.77200348 55.3740067,10.12 54.03,10.12 C52.8379941,10.12 51.8020044,9.6700045 50.922,8.77 C50.0419956,7.8699955 49.602,6.78400636 49.602,5.512 C49.602,4.23999364 50.0499955,3.17800426 50.946,2.326 C51.8420045,1.47399574 52.8979939,1.048 54.114,1.048 C55.0580047,1.048 55.9499958,1.35999688 56.79,1.984 C57.0060011,2.1440008 57.114,2.32199902 57.114,2.518 C57.114,2.71400098 57.0220009,2.93999872 56.838,3.196 C56.5259985,3.62000212 56.2420013,3.832 55.986,3.832 C55.8339993,3.832 55.5900017,3.7220011 55.254,3.502 C54.9179983,3.2819989 54.5180023,3.172 54.054,3.172 C53.445997,3.172 52.9060024,3.38599786 52.434,3.814 C51.9619977,4.24200214 51.726,4.80199654 51.726,5.494 C51.726,6.18600346 51.9659976,6.77399758 52.446,7.258 C52.9260024,7.74200242 53.469997,7.984 54.078,7.984 C54.5180022,7.984 54.9139983,7.91200072 55.266,7.768 L55.266,6.46 L54.318,6.46 C54.0699988,6.46 53.8940005,6.42800032 53.79,6.364 C53.6859995,6.29999968 53.6180002,6.20600062 53.586,6.082 C53.5539999,5.95799938 53.538,5.79000106 53.538,5.578 C53.538,5.36599894 53.5559998,5.19600064 53.592,5.068 C53.6280002,4.93999936 53.6939995,4.85200024 53.79,4.804 C53.9340007,4.73199964 54.1259988,4.696 54.366,4.696 Z M59.478,4.468 C60.1500034,3.84399688 60.9179957,3.532 61.782,3.532 C62.6460044,3.532 63.4099967,3.8419969 64.074,4.462 C64.7380034,5.0820031 65.07,5.8719952 65.07,6.832 C65.07,7.49600332 64.8980018,8.08599742 64.554,8.602 C64.2099983,9.11800258 63.7920025,9.49799878 63.3,9.742 C62.8079976,9.98600122 62.2980027,10.108 61.77,10.108 C61.2419974,10.108 60.7300025,9.9780013 60.234,9.718 C59.7379976,9.4579987 59.3200017,9.07400254 58.98,8.566 C58.6399983,8.05799746 58.47,7.4840032 58.47,6.844 C58.47,5.8839952 58.8059967,5.09200312 59.478,4.468 Z M61.758,7.996 C62.0220014,7.996 62.2859987,7.896001 62.55,7.696 C62.8140014,7.495999 62.946,7.20000196 62.946,6.808 C62.946,6.41599804 62.8220013,6.12400096 62.574,5.932 C62.3259988,5.73999904 62.0580015,5.644 61.77,5.644 C61.4819986,5.644 61.2140013,5.743999 60.966,5.944 C60.7179988,6.144001 60.594,6.43799806 60.594,6.826 C60.594,7.21400194 60.7219988,7.50599902 60.978,7.702 C61.2340013,7.89800098 61.4939987,7.996 61.758,7.996 Z M66.9780001,4.468 C67.6500034,3.84399688 68.4179957,3.532 69.2820001,3.532 C70.1460044,3.532 70.9099967,3.8419969 71.5740001,4.462 C72.2380034,5.0820031 72.5700001,5.8719952 72.5700001,6.832 C72.5700001,7.49600332 72.3980018,8.08599742 72.0540001,8.602 C71.7099983,9.11800258 71.2920025,9.49799878 70.8000001,9.742 C70.3079976,9.98600122 69.7980027,10.108 69.2700001,10.108 C68.7419974,10.108 68.2300025,9.9780013 67.7340001,9.718 C67.2379976,9.4579987 66.8200018,9.07400254 66.4800001,8.566 C66.1399984,8.05799746 65.9700001,7.4840032 65.9700001,6.844 C65.9700001,5.8839952 66.3059967,5.09200312 66.9780001,4.468 Z M69.2580001,7.996 C69.5220014,7.996 69.7859987,7.896001 70.0500001,7.696 C70.3140014,7.495999 70.4460001,7.20000196 70.4460001,6.808 C70.4460001,6.41599804 70.3220013,6.12400096 70.0740001,5.932 C69.8259988,5.73999904 69.5580015,5.644 69.2700001,5.644 C68.9819986,5.644 68.7140013,5.743999 68.4660001,5.944 C68.2179988,6.144001 68.0940001,6.43799806 68.0940001,6.826 C68.0940001,7.21400194 68.2219988,7.50599902 68.4780001,7.702 C68.7340013,7.89800098 68.9939987,7.996 69.2580001,7.996 Z M78.2100001,0.796 C78.3620008,0.74799976 78.5639988,0.724 78.8160001,0.724 C79.0680013,0.724 79.2699993,0.74799976 79.4220001,0.796 C79.5740008,0.84400024 79.6799998,0.9279994 79.7400001,1.048 C79.8000004,1.1680006 79.836,1.27399954 79.8480001,1.366 C79.8600001,1.45800046 79.8660001,1.59599908 79.8660001,1.78 L79.8660001,8.944 C79.8660001,9.12800092 79.8600001,9.26599954 79.8480001,9.358 C79.836,9.45000046 79.7980004,9.55199944 79.7340001,9.664 C79.6139995,9.88000108 79.2760028,9.988 78.7200001,9.988 C78.1639973,9.988 77.8540004,9.79200196 77.7900001,9.4 C77.4539984,9.78400192 76.9860031,9.976 76.3860001,9.976 C75.6659965,9.976 75.010003,9.66200314 74.4180001,9.034 C73.8259971,8.40599686 73.5300001,7.67400418 73.5300001,6.838 C73.5300001,6.00199582 73.8279971,5.26800316 74.4240001,4.636 C75.020003,4.00399684 75.6739965,3.688 76.3860001,3.688 C76.978003,3.688 77.4379984,3.887998 77.7660001,4.288 L77.7660001,1.768 C77.7660001,1.58399908 77.772,1.44600046 77.7840001,1.354 C77.7960001,1.26199954 77.8319998,1.15800058 77.8920001,1.042 C77.9520004,0.92599942 78.0579993,0.84400024 78.2100001,0.796 Z M76.6980001,7.888 C76.9940015,7.888 77.2399991,7.78000108 77.4360001,7.564 C77.632001,7.34799892 77.7300001,7.1100013 77.7300001,6.85 C77.7300001,6.5899987 77.636001,6.34800112 77.4480001,6.124 C77.2599991,5.89999888 77.0060017,5.788 76.6860001,5.788 C76.3659985,5.788 76.110001,5.8979989 75.9180001,6.118 C75.7259991,6.3380011 75.6300001,6.57999868 75.6300001,6.844 C75.6300001,7.10800132 75.733999,7.34799892 75.9420001,7.564 C76.1500011,7.78000108 76.4019986,7.888 76.6980001,7.888 Z" id="TechForGood-Copy" fill="#FFFFFF"></path>
    </g>
</svg>